<svg xmlns="http://www.w3.org/2000/svg" width="2015" height="400" viewBox="0 0 2015.06 400.00"><path d="M106.65,234.18 L120.15,234.76 L125.75,235.42 L131.24,236.74 L137.82,239.28 L142.77,241.99 L148.46,246.16 L152.53,250.08 L156.93,255.59 L160.46,261.70 L162.62,266.91 L164.44,273.73 L165.23,280.74 L165.12,286.38 L164.05,293.36 L161.97,300.10 L158.92,306.46 L155.83,311.18 L151.23,316.52 L147.01,320.28 L141.16,324.22 L136.11,326.74 L129.43,329.01 L122.49,330.29 L115.44,330.53 L108.43,329.74 L102.95,328.36 L96.40,325.76 L91.47,323.00 L85.83,318.77 L81.80,314.82 L77.46,309.26 L74.16,303.49 L34.94,366.25 L45.15,375.21 L56.53,383.05 L68.76,389.50 L79.35,393.70 L92.66,397.40 L106.33,399.50 L119.11,400.00 L132.90,398.98 L144.10,396.92 L156.39,393.32 L166.93,389.02 L176.13,384.22 L186.84,377.22 L195.68,370.03 L204.73,360.98 L211.31,352.96 L217.15,344.39 L222.67,334.43 L226.83,324.93 L230.78,312.76 L233.17,301.62 L234.55,288.89 L234.60,277.50 L233.69,267.17 L232.09,257.96 L230.17,250.26 L227.23,241.39 L224.20,234.06 L219.99,225.71 L215.91,218.90 L210.53,211.26 L205.50,205.12 L199.05,198.35 L193.17,193.02 L185.81,187.27 L179.21,182.86 L171.07,178.26 L163.90,174.86 L155.18,171.50 L147.58,169.20 L147.31,169.12 Z M199.71,33.64 L189.49,24.69 L180.18,18.13 L169.01,11.88 L158.55,7.36 L146.34,3.53 L135.18,1.25 L124.87,0.12 L112.07,0.00 L101.75,0.92 L90.54,2.98 L78.25,6.57 L68.64,10.45 L58.51,15.67 L47.80,22.68 L39.73,29.18 L31.55,37.12 L23.34,46.94 L17.50,55.50 L12.43,64.55 L7.82,74.96 L3.86,87.14 L1.48,98.28 L0.10,111.00 L0.00,121.37 L0.95,132.72 L3.33,145.30 L6.24,155.25 L10.45,165.84 L16.37,177.19 L22.65,186.69 L30.77,196.58 L38.11,203.91 L44.14,209.07 L49.67,213.22 L61.42,220.50 L73.94,226.36 L80.44,228.72 L87.34,230.77 L127.99,165.72 L110.29,164.70 L104.76,163.55 L99.41,161.75 L94.31,159.34 L88.38,155.50 L83.09,150.84 L78.53,145.46 L74.82,139.46 L72.02,132.98 L70.21,126.17 L69.49,120.57 L69.52,113.51 L70.59,106.54 L72.67,99.80 L75.04,94.67 L78.81,88.71 L82.43,84.38 L86.54,80.51 L92.27,76.40 L98.54,73.16 L103.85,71.26 L110.75,69.78 L117.79,69.33 L124.82,69.92 L131.69,71.53 L138.25,74.14 L143.17,76.89 L148.82,81.12 L152.85,85.08 L157.19,90.64 L160.49,96.41 Z" fill="#FFFFFF"/><g transform="translate(354.60 300.00) scale(0.38023)"><path d="M337 12Q283 12 229.5 2.5Q176 -7 132.0 -27.0Q88 -47 61.0 -79.0Q34 -111 34 -156Q34 -159 34.0 -162.5Q34 -166 35 -170H242Q241 -167 241.0 -164.0Q241 -161 241 -159Q242 -142 255.0 -130.5Q268 -119 289.5 -113.0Q311 -107 337 -107Q354 -107 377.5 -109.0Q401 -111 418.5 -119.0Q436 -127 436 -146Q436 -164 412.0 -172.0Q388 -180 349.0 -185.0Q310 -190 266 -196Q226 -202 187.5 -212.0Q149 -222 117.5 -240.0Q86 -258 66.5 -287.0Q47 -316 47 -361Q47 -413 71.5 -448.0Q96 -483 137.5 -503.5Q179 -524 232.5 -532.5Q286 -541 344 -541Q394 -541 444.0 -532.5Q494 -524 535.5 -505.5Q577 -487 601.5 -457.5Q626 -428 626 -386Q626 -383 626.0 -378.5Q626 -374 625 -372H420V-380Q420 -394 408.0 -403.0Q396 -412 378.0 -416.5Q360 -421 341 -421Q334 -421 319.0 -420.5Q304 -420 289.0 -417.0Q274 -414 263.5 -407.0Q253 -400 253 -387Q253 -373 271.0 -366.0Q289 -359 318.0 -355.0Q347 -351 382 -347Q424 -341 469.5 -333.5Q515 -326 554.5 -309.5Q594 -293 618.0 -261.0Q642 -229 642 -175Q642 -121 617.5 -84.5Q593 -48 550.5 -27.0Q508 -6 452.5 3.0Q397 12 337 12Z M988.0 12Q926.0 12 879.5 -1.0Q833.0 -14 807.5 -48.0Q782.0 -82 782.0 -142V-390H693.0V-528H790.0L834.0 -688H993.0V-528H1124.0V-390H993.0V-201Q993.0 -164 1007.5 -145.0Q1022.0 -126 1064.0 -126H1124.0V-6Q1109.0 -1 1083.5 3.5Q1058.0 8 1032.5 10.0Q1007.0 12 988.0 12Z M1527.0 12Q1423.0 12 1346.0 -17.5Q1269.0 -47 1226.5 -108.0Q1184.0 -169 1184.0 -264Q1184.0 -357 1226.0 -418.0Q1268.0 -479 1342.0 -509.5Q1416.0 -540 1516.0 -540Q1620.0 -540 1694.5 -510.5Q1769.0 -481 1808.5 -420.0Q1848.0 -359 1848.0 -264V-228H1400.0Q1401.0 -192 1414.5 -166.5Q1428.0 -141 1456.0 -128.0Q1484.0 -115 1525.0 -115Q1554.0 -115 1575.0 -121.0Q1596.0 -127 1609.5 -137.5Q1623.0 -148 1629.5 -161.5Q1636.0 -175 1636.0 -190H1848.0Q1848.0 -142 1825.0 -104.0Q1802.0 -66 1759.5 -40.5Q1717.0 -15 1658.0 -1.5Q1599.0 12 1527.0 12ZM1401.0 -326H1628.0Q1628.0 -345 1621.0 -361.0Q1614.0 -377 1601.0 -388.5Q1588.0 -400 1568.5 -406.5Q1549.0 -413 1525.0 -413Q1486.0 -413 1460.5 -402.0Q1435.0 -391 1420.0 -371.5Q1405.0 -352 1401.0 -326Z M1935.0 197V-528H2106.0L2124.0 -450H2132.0Q2166.0 -500 2213.0 -520.0Q2260.0 -540 2315.0 -540Q2389.0 -540 2445.5 -510.0Q2502.0 -480 2534.0 -418.5Q2566.0 -357 2566.0 -263Q2566.0 -170 2534.0 -109.0Q2502.0 -48 2445.5 -18.0Q2389.0 12 2315.0 12Q2287.0 12 2256.5 6.0Q2226.0 0 2199.5 -14.5Q2173.0 -29 2153.0 -53H2146.0V197ZM2249.0 -139Q2287.0 -139 2310.0 -153.5Q2333.0 -168 2343.5 -192.0Q2354.0 -216 2354.0 -246V-282Q2354.0 -313 2343.5 -337.0Q2333.0 -361 2310.0 -375.0Q2287.0 -389 2249.0 -389Q2212.0 -389 2188.5 -373.5Q2165.0 -358 2154.5 -332.0Q2144.0 -306 2144.0 -274V-254Q2144.0 -231 2150.0 -210.0Q2156.0 -189 2168.5 -173.5Q2181.0 -158 2201.0 -148.5Q2221.0 -139 2249.0 -139Z M2653.0 197V-528H2824.0L2842.0 -450H2850.0Q2884.0 -500 2931.0 -520.0Q2978.0 -540 3033.0 -540Q3107.0 -540 3163.5 -510.0Q3220.0 -480 3252.0 -418.5Q3284.0 -357 3284.0 -263Q3284.0 -170 3252.0 -109.0Q3220.0 -48 3163.5 -18.0Q3107.0 12 3033.0 12Q3005.0 12 2974.5 6.0Q2944.0 0 2917.5 -14.5Q2891.0 -29 2871.0 -53H2864.0V197ZM2967.0 -139Q3005.0 -139 3028.0 -153.5Q3051.0 -168 3061.5 -192.0Q3072.0 -216 3072.0 -246V-282Q3072.0 -313 3061.5 -337.0Q3051.0 -361 3028.0 -375.0Q3005.0 -389 2967.0 -389Q2930.0 -389 2906.5 -373.5Q2883.0 -358 2872.5 -332.0Q2862.0 -306 2862.0 -274V-254Q2862.0 -231 2868.0 -210.0Q2874.0 -189 2886.5 -173.5Q2899.0 -158 2919.0 -148.5Q2939.0 -139 2967.0 -139Z M3370.0 0V-528H3581.0V0Z M4010.0 12Q3906.0 12 3829.0 -17.5Q3752.0 -47 3709.5 -108.0Q3667.0 -169 3667.0 -264Q3667.0 -357 3709.0 -418.0Q3751.0 -479 3825.0 -509.5Q3899.0 -540 3999.0 -540Q4103.0 -540 4177.5 -510.5Q4252.0 -481 4291.5 -420.0Q4331.0 -359 4331.0 -264V-228H3883.0Q3884.0 -192 3897.5 -166.5Q3911.0 -141 3939.0 -128.0Q3967.0 -115 4008.0 -115Q4037.0 -115 4058.0 -121.0Q4079.0 -127 4092.5 -137.5Q4106.0 -148 4112.5 -161.5Q4119.0 -175 4119.0 -190H4331.0Q4331.0 -142 4308.0 -104.0Q4285.0 -66 4242.5 -40.5Q4200.0 -15 4141.0 -1.5Q4082.0 12 4010.0 12ZM3884.0 -326H4111.0Q4111.0 -345 4104.0 -361.0Q4097.0 -377 4084.0 -388.5Q4071.0 -400 4051.5 -406.5Q4032.0 -413 4008.0 -413Q3969.0 -413 3943.5 -402.0Q3918.0 -391 3903.0 -371.5Q3888.0 -352 3884.0 -326Z" fill="#FFFFFF"/><path d="M3323.6,-590.0 L3543.0,-590.0 L3627.4,-725.0 L3408.0,-725.0 Z" fill="#C8F03C"/></g></svg>
